<svg version="1.1" id="Layer_1" xmlns="http://www.w3.org/2000/svg" xmlns:xlink="http://www.w3.org/1999/xlink" x="0px" y="0px"
	 width="100%" viewBox="0 0 170 50" enable-background="new 0 0 170 50" xml:space="preserve">
<path fill="#FFFFFF" opacity="1.000000" stroke="none" 
	d="
M120.000000,51.000000 
	C80.000015,51.000000 40.500023,51.000000 1.000026,51.000000 
	C1.000018,34.333351 1.000018,17.666700 1.000009,1.000038 
	C57.666630,1.000025 114.333260,1.000025 170.999908,1.000013 
	C170.999939,17.666628 170.999939,34.333256 170.999969,50.999943 
	C154.166672,51.000000 137.333328,51.000000 120.000000,51.000000 
M36.182224,9.059751 
	C24.823334,9.059751 13.464441,9.059751 2.367591,9.059751 
	C2.367591,20.476179 2.367591,31.172409 2.367591,41.898655 
	C15.185229,41.898655 27.618958,41.898655 40.979141,41.993137 
	C83.899834,41.993137 126.820534,41.993137 169.733749,41.993137 
	C169.733749,30.729160 169.733749,19.992502 169.733749,8.999701 
	C167.830826,8.999701 166.191910,8.999701 164.552994,8.999701 
	C125.899323,8.999701 87.245659,8.992680 48.591991,9.010669 
	C44.767170,9.012448 40.942425,9.167129 36.182224,9.059751 
z"/>
<path fill="#000000" opacity="1.000000" stroke="none" 
	d="
M37.117641,9.250841 
	C40.942425,9.167129 44.767170,9.012448 48.591991,9.010669 
	C87.245659,8.992680 125.899323,8.999701 164.552994,8.999701 
	C166.191910,8.999701 167.830826,8.999701 169.733749,8.999701 
	C169.733749,19.992502 169.733749,30.729160 169.733749,41.993137 
	C126.820534,41.993137 83.899834,41.993137 40.420567,41.511787 
	C39.330589,37.112545 38.952698,33.166229 38.233585,29.283102 
	C37.003471,22.640589 34.661503,16.089231 37.117641,9.250841 
z"/>
<path fill="#5B5858" opacity="1.000000" stroke="none" 
	d="
M36.649933,9.155296 
	C34.661503,16.089231 37.003471,22.640589 38.233585,29.283102 
	C38.952698,33.166229 39.330589,37.112545 39.957336,41.464546 
	C27.618958,41.898655 15.185229,41.898655 2.367591,41.898655 
	C2.367591,31.172409 2.367591,20.476179 2.367591,9.059751 
	C13.464441,9.059751 24.823334,9.059751 36.649933,9.155296 
M20.813463,30.931917 
	C18.317781,24.975883 15.822100,19.019850 13.326418,13.063817 
	C12.783542,13.067351 12.240666,13.070887 11.697790,13.074422 
	C9.204458,18.523651 6.462546,23.878086 4.331775,29.465576 
	C3.389235,31.937181 4.532860,33.845024 7.680178,32.106995 
	C9.493690,31.105530 11.238461,29.979586 13.138027,28.835045 
	C14.814503,32.838467 16.346037,36.495770 17.877571,40.153072 
	C18.414787,40.048656 18.952003,39.944244 19.489220,39.839828 
	C19.983681,37.138382 20.478140,34.436939 20.813463,30.931917 
M24.877714,27.700998 
	C26.403297,30.685375 27.920721,33.689137 32.485134,30.572535 
	C29.645554,24.326204 26.851757,18.180590 23.943798,11.783851 
	C19.972906,17.391359 22.163851,22.215342 24.877714,27.700998 
z"/>
<path fill="#E9E5E5" opacity="1.000000" stroke="none" 
	d="
M20.893032,31.333706 
	C20.478140,34.436939 19.983681,37.138382 19.489220,39.839828 
	C18.952003,39.944244 18.414787,40.048656 17.877571,40.153072 
	C16.346037,36.495770 14.814503,32.838467 13.138027,28.835045 
	C11.238461,29.979586 9.493690,31.105530 7.680178,32.106995 
	C4.532860,33.845024 3.389235,31.937181 4.331775,29.465576 
	C6.462546,23.878086 9.204458,18.523651 11.697790,13.074422 
	C12.240666,13.070887 12.783542,13.067351 13.326418,13.063817 
	C15.822100,19.019850 18.317781,24.975883 20.893032,31.333706 
z"/>
<path fill="#ECE9E9" opacity="1.000000" stroke="none" 
	d="
M24.681776,27.366369 
	C22.163851,22.215342 19.972906,17.391359 23.943798,11.783851 
	C26.851757,18.180590 29.645554,24.326204 32.485134,30.572535 
	C27.920721,33.689137 26.403297,30.685375 24.681776,27.366369 
z"/>
</svg>